# ProBuilder 6.0.9
# https://unity3d.com/unity/features/worldbuilding/probuilder
# 1/04/2026 1:48:17 PM

mtllib ./Zone1.mtl
o Zone1

g Zone1
v 0.7335674 -21.96422 3.754752
v -4.34192 -21.96422 3.754678
v 0.7335674 -17.73624 3.754752
v -4.34192 -17.73624 3.754678
v -4.341945 -21.96422 -3.800961
v 0.7335422 -21.96422 -3.800887
v -4.341945 -17.73624 -3.800961
v 0.7335422 -17.73624 -3.800887
v 13.10888 -21.96422 -3.801035
v 13.10891 -21.96422 3.754604
v 13.10888 -17.73624 -3.801035
v 13.10891 -17.73624 3.754604
v -4.34192 -10.46052 3.754678
v -4.341945 -10.46052 -3.800961
v -9.748056 -17.73624 3.75471
v -9.748056 -10.46052 3.75471
v -9.748082 -17.73624 -3.800929
v -9.748082 -10.46052 -3.800929
v -4.34192 -5.340628 3.754678
v -4.341945 -5.340628 -3.800961
v -9.748056 -5.340628 3.75471
v -9.748082 -5.340628 -3.800929
v -12.36219 -7.140677 -3.800913
v -12.36216 -7.140677 3.754725
v -12.36219 -5.340628 -3.800913
v -12.36216 -5.340628 3.754725
v -4.34192 26.19324 3.754678
v -4.341945 26.19324 -3.800961
v -9.748056 26.19324 3.75471
v -9.748082 26.19324 -3.800929
v -4.34192 43.34702 3.754678
v -4.341945 43.34702 -3.800961
v -9.748056 43.34702 3.75471
v -9.748082 43.34702 -3.800929
v -12.48432 30.29667 -3.800929
v -12.48429 30.29667 3.75471
v -12.48432 43.34702 -3.800929
v -12.48429 43.34702 3.75471
v -9.748056 57.86949 3.75471
v -4.360949 57.86949 3.754694
v -4.34481 57.86949 -3.800945
v -9.748082 57.86949 -3.800929
v -10.05126 -10.46052 3.754719
v -10.05126 -10.46052 -3.800919
v -10.05118 26.19324 -3.800929
v -10.05117 26.19324 3.75471
v -9.748078 57.86949 -1.348225
v -9.748065 57.86949 1.170543
v -9.748055 60.15948 1.170543
v -9.748069 60.15948 -1.348225
v -4.390484 60.15948 -1.348225
v -4.349393 57.86949 -1.336229
v -4.367254 57.86949 1.150306
v -4.406636 60.15948 1.170543
v 3.57751 -15.20997 -2.064569
v 3.577523 -15.20997 2.018366
v 10.26493 -15.20997 -2.064649
v 10.26494 -15.20997 2.018287
v 3.517676 -17.73624 7.762567
v 3.517676 -21.96422 7.762567
v 10.32492 -17.73624 7.762486
v 10.32492 -21.96422 7.762486
v 3.517526 -21.96422 -7.808768
v 3.517526 -17.73624 -7.808768
v 10.32477 -21.96422 -7.808849
v 10.32477 -17.73624 -7.808849
v 5.081926 -15.20997 -4.230359
v 8.760445 -15.20997 -4.230402
v 8.760526 -15.20997 4.184075
v 5.082007 -15.20997 4.18412
v -9.748075 61.3323 -1.348226
v -9.748061 61.3323 1.170543
v -4.406638 61.3323 1.170543
v -4.390486 61.3323 -1.348225
v -9.648672 62.64012 -1.348227
v -9.648659 62.64011 1.170545
v -4.341067 62.03981 1.170545
v -4.325017 62.03799 -1.348227
v -8.972663 64.20079 -1.348228
v -8.972648 64.20079 1.170545
v -3.813218 62.81833 1.170545
v -3.797617 62.81414 -1.348228
v -8.188107 65.56088 -1.348229
v -8.188095 65.56087 1.170546
v -3.305549 63.39487 1.170546
v -3.290785 63.38832 -1.348228
v -7.211483 66.99249 -1.34823
v -7.211468 66.99248 1.170547
v -2.799778 63.98123 1.170547
v -2.786437 63.97212 -1.348229
v -5.066277 69.06313 -1.34823
v -5.06627 69.06311 1.170547
v -2.059784 64.64815 1.170547
v -2.050691 64.63481 -1.348229
v -2.634639 70.22731 -1.348229
v -2.634636 70.22729 1.170546
v -1.252168 65.06786 1.170546
v -1.247988 65.05226 -1.348229
v 11.56958 70.50388 -1.348231
v 11.56958 70.50386 1.170547
v 11.56958 65.16241 1.170547
v 11.56958 65.14627 -1.348231
v 18.10316 65.16241 5.933569
v 18.10316 65.14627 -6.111249
v 18.10316 70.50386 5.933569
v 32.86089 73.64153 5.933575
v 32.86089 65.16241 5.933573
v 32.86088 65.14627 -6.111253
v 18.10316 70.50388 -6.11125
v 32.86089 73.64154 -6.111255
v 32.86089 78.96439 -6.111256
v 32.86089 78.96437 5.933575
v 38.62232 78.96439 -6.111254
v 38.62232 78.96437 5.933575
v 18.10316 78.96439 -6.111252
v 18.10316 78.96437 5.933571
v 38.62232 73.64154 -6.111255
v 38.62232 73.64153 5.933575
v 18.10316 85.65923 -6.111253
v 18.10316 85.65921 5.933573
v 32.86089 85.65923 -6.111257
v 32.86089 85.65921 5.933577
v 27.94962 78.96437 5.933573
v 23.96313 78.96437 5.933573
v 23.95573 85.65921 5.933575
v 27.87816 85.65921 5.933575
v 23.95574 85.65921 13.08347
v 27.87816 85.65921 13.08347
v 27.94962 78.96437 13.08346
v 23.96314 78.96437 13.08346
v 23.95575 85.65921 17.43854
v 27.87816 85.65921 17.43854
v 27.94962 78.96439 17.43853
v 23.96315 78.96439 17.43854
v 23.95575 85.65921 23.47948
v 27.87817 85.65921 23.47948
v 27.94962 78.96439 23.47947
v 23.96315 78.96439 23.47947
v 23.96316 52.24559 17.43856
v 27.94964 52.24559 17.43855
v 23.96317 52.24559 23.4795
v 27.94964 52.24559 23.47949
v 23.96316 56.52943 17.43855
v 27.94963 56.52943 17.43855
v 23.96316 56.52943 23.47949
v 27.94964 56.52943 23.47949
v 23.96317 56.52943 -2.11992
v 27.94966 56.52943 -2.119927
v 23.96318 52.24559 -2.119915
v 27.94966 52.24559 -2.119923
v 23.96317 56.52943 2.183144
v 27.94965 56.52943 2.183139
v 23.96317 52.24559 2.18315
v 27.94965 52.24559 2.183142
v -4.364987 52.26527 2.188208
v -4.368156 56.52999 2.190667
v -4.357943 52.26312 -2.13934
v -4.357739 56.5284 -2.139048
v 41.67301 73.64153 2.602139
v 41.67302 73.64154 -2.779822
v 41.67301 78.96437 2.602139
v 41.67302 78.96439 -2.779822
v 47.19358 73.64153 2.510449
v 45.80062 73.64154 -2.688132
v 47.19358 78.96437 2.510448
v 45.80062 78.96439 -2.688132
v 52.69572 73.62831 -1.125246
v 48.89011 73.62833 -4.930878
v 52.69572 78.95116 -1.12525
v 48.89011 78.95117 -4.93088
v 54.98997 73.61269 -7.091193
v 49.6105 73.6127 -7.25504
v 54.98997 78.93553 -7.091198
v 49.6105 78.93555 -7.255044
v 54.99 73.61269 -11.06306
v 49.61052 73.6127 -11.06273
v 54.99 78.93553 -11.06306
v 49.61053 78.93555 -11.06273
v 54.99002 73.61269 -32.45063
v 49.61054 73.6127 -32.45031
v 54.99002 78.93553 -32.45063
v 49.61055 78.93555 -32.45031
v 17.82774 70.50386 5.429691
v 17.8312 70.50388 -5.609896
v 17.82774 69.95288 5.429693
v 18.10316 69.95288 5.933571
v 18.10316 69.9529 -6.111251
v 17.8312 69.9529 -5.609898
v -8.627398 -21.84774 3.754709
v -9.353296 -21.43435 3.754711
v -9.353324 -21.43435 -3.800931
v -8.628173 -21.84774 -3.800938
v -9.651168 -20.76431 -3.800935
v -9.651155 -20.76643 3.754715
v -9.748084 -19.69991 -3.800931
v -9.748056 -19.70089 3.754711
v -7.880205 -21.96422 3.754703
v -7.880843 -21.96422 -3.800939

vt 0 -3.227978
vt 5.075488 -3.227978
vt 0 1
vt 5.075488 1
vt 7.555639 -3.227978
vt 7.555639 1
vt 5.075512 1
vt 2.479553E-05 0.9999263
vt 5.075487 -6.555639
vt 0 -6.555713
vt 5.075512 -6.555713
vt 5.075487 0.9999263
vt 7.555639 -6.27572
vt 0 -6.27572
vt 5.406136 -6.27572
vt 5.406136 1
vt 7.555639 -4.119897
vt 0 -4.119897
vt 5.406136 -4.119897
vt 7.555639 -0.8000498
vt 0 -0.8000498
vt 2.614132 0.9999845
vt 2.614106 -6.555655
vt 7.555639 -30.53387
vt 0 -30.53387
vt 5.406136 -30.53387
vt 7.555639 -16.15377
vt 0 -16.15377
vt 5.406136 -16.15377
vt 7.555639 -12.05035
vt 0 -12.05035
vt 5.406136 -13.52247
vt 0 -13.52247
vt 0.01902914 1
vt 5.403272 1
vt 2.736264 0.9999998
vt 2.736238 -6.555639
vt 9.748078 -10.46053
vt 9.748078 -5.34063
vt 12.36218 -5.34063
vt 12.36218 -7.14068
vt 10.05128 -10.46053
vt -9.74806 -5.340625
vt -9.74806 -10.46052
vt -10.05124 -10.46052
vt -12.36217 -7.140675
vt -12.36217 -5.340625
vt 10.05126 -3.800919
vt 9.748082 -3.800929
vt 9.748056 3.75471
vt 10.05126 3.754719
vt -3.754683 -2.842948
vt -3.754682 1.202009
vt 3.800957 1.202009
vt 3.800955 -2.842957
vt -9.748082 43.34702
vt -9.748082 26.19324
vt -10.05118 26.19324
vt -12.48432 30.29667
vt -12.48432 43.34702
vt 9.748056 26.19324
vt 9.748056 43.34702
vt 12.48429 43.34702
vt 12.48429 30.29667
vt 10.05117 26.19324
vt -3.754676 27.65668
vt -3.754668 32.42723
vt 3.800971 32.42723
vt 3.800963 27.65667
vt 1.348259 57.86949
vt 3.800963 57.86949
vt 3.800963 43.34702
vt -3.754676 43.34702
vt -3.754676 57.86949
vt -1.170509 57.86949
vt -1.170491 57.86945
vt -1.170491 60.15944
vt 1.348277 60.15944
vt -9.748069 60.15948
vt -9.748078 57.86949
vt -4.390484 60.15948
vt -4.349393 57.86949
vt -9.748037 -1.348225
vt -9.748041 -3.800929
vt -4.349352 -1.336229
vt -4.344769 -3.800945
vt -9.748056 3.75471
vt -9.748065 1.170543
vt -4.360949 3.754694
vt -4.367254 1.150306
vt 9.752398 57.86949
vt 9.752389 60.15948
vt 4.371549 57.86949
vt 4.411007 60.15948
vt 0 -3.082936
vt 6.687419 -3.083015
vt 6.687433 0.9999204
vt 6.807249 1
vt 6.807249 -3.227978
vt 12.37534 1
vt 12.37537 -6.555639
vt 4.879925 -3.227978
vt 4.879925 1
vt 12.37534 0.9999998
vt 2.78411 -3.007962
vt 9.591358 -3.007881
vt 1.504416 -1.165789
vt 5.182935 -1.165833
vt 6.68742 -1.165833
vt 0 -1.165753
vt 5.183002 0.9999557
vt 1.504483 1
vt 12.37534 -3.007815
vt 0 -3.007962
vt 9.591233 1
vt 2.783984 0.9999189
vt 3.803972 -4.819321
vt 3.803982 -0.7363853
vt 2.362127 -5.120064
vt 0 -0.8499317
vt 5.026486 -1.307506
vt 3.750034 1
vt 2.664357 1
vt 5.026486 -3.270133
vt 0 -2.812559
vt 1.276454 -5.120064
vt 3.803982 1
vt 3.803963 -6.555639
vt 1.144409E-05 -0.7363174
vt 0 -4.819253
vt 0 -3.270082
vt 2.362251 1
vt 3.750016 -5.120096
vt 5.026535 -2.812617
vt 6.807249 0.9999008
vt 1.56431 -3.380342
vt 5.242829 -3.380397
vt 5.026535 -0.8500137
vt 2.664282 -5.120096
vt 1.27652 1
vt 0 -1.307478
vt 6.807248 -3.380395
vt 0 -3.380296
vt 5.24294 0.9999466
vt 1.564422 1
vt -1.316655 60.22887
vt -1.304954 57.9385
vt 1.181645 57.9385
vt 1.202164 60.22883
vt 1.348277 60.15953
vt -1.170491 60.15953
vt 1.348277 61.33235
vt -1.170492 61.33235
vt 9.748055 60.15948
vt 4.406636 60.15948
vt 9.748061 61.3323
vt 4.406638 61.3323
vt 1.198777 60.15949
vt -1.320042 60.15949
vt 1.198778 61.33231
vt -1.320043 61.33231
vt -4.390486 61.3323
vt -9.748075 61.3323
vt 1.348277 60.41712
vt -1.170492 60.41712
vt 1.348278 61.72871
vt -1.170494 61.7287
vt 9.648659 62.64011
vt 4.341067 62.03981
vt 1.198778 60.66464
vt -1.320043 60.66464
vt 1.198359 61.37517
vt -1.320464 61.37336
vt -4.325017 62.03799
vt -9.648672 62.64012
vt 1.348291 53.64455
vt -1.170481 53.64455
vt 1.348288 55.34534
vt -1.170486 55.34534
vt 8.972648 64.20079
vt 3.813218 62.81833
vt 1.2003 48.91849
vt -1.318522 48.9163
vt 1.196679 49.85908
vt -1.322142 49.85468
vt -3.797617 62.81415
vt -8.972663 64.20079
vt 1.348283 51.12845
vt -1.170491 51.12845
vt 1.348278 52.6986
vt -1.170496 52.69859
vt 8.188095 65.56087
vt 3.305549 63.39487
vt 1.199702 44.63271
vt -1.319117 44.62713
vt 1.195816 45.40089
vt -1.322997 45.39299
vt -3.290784 63.38832
vt -8.188107 65.56088
vt 1.348303 49.54455
vt -1.170472 49.54453
vt 1.348295 51.27755
vt -1.170482 51.27754
vt 7.211468 66.99248
vt 2.799778 63.98123
vt 1.197301 45.85209
vt -1.32151 45.84344
vt 1.193203 46.62643
vt -1.325599 46.61491
vt -2.786437 63.97212
vt -7.211482 66.99249
vt 41.33696 -1.348671
vt 41.33696 1.170105
vt 44.31847 -1.348671
vt 44.31847 1.170105
vt 5.06627 69.06311
vt 2.059784 64.64815
vt -40.75425 1.478415
vt -40.75806 -1.040411
vt -41.75042 1.478415
vt -41.74825 -1.040412
vt -2.050692 64.63481
vt -5.066277 69.06313
vt 25.25369 -1.348656
vt 25.25369 1.17012
vt 27.94965 -1.348655
vt 27.94964 1.17012
vt 2.634636 70.22729
vt 1.252169 65.06786
vt -27.9838 1.541562
vt -27.98572 -0.9772648
vt -28.89396 1.541562
vt -28.89048 -0.9772627
vt -1.247989 65.05226
vt -2.63464 70.22731
vt -1.267027 -1.348656
vt -1.267024 1.170119
vt 12.93989 -1.348658
vt 12.93989 1.170119
vt -11.56958 70.50386
vt -11.56958 65.16241
vt 0.7722806 1.574202
vt 0.7682156 -0.9446215
vt -12.04982 1.574202
vt -12.0497 -0.9446265
vt 11.56958 65.14627
vt 11.56958 70.50388
vt -11.26499 1.588502
vt -11.26506 -0.9303268
vt -17.79849 6.351622
vt -17.79857 -5.693052
vt -18.10316 70.50386
vt -18.10316 65.16241
vt -32.86089 73.64153
vt -32.86089 65.16241
vt -18.10316 6.020902
vt -18.10316 -6.023928
vt -32.86089 6.020905
vt -32.86088 -6.023931
vt 18.10316 65.14627
vt 18.10316 70.50388
vt 32.86088 65.14627
vt 32.86089 73.64154
vt 32.86089 -6.111356
vt 32.86089 5.933475
vt 38.62232 -6.111354
vt 38.62232 5.933475
vt 6.11125 70.50388
vt -5.933569 70.50387
vt 6.111252 78.96439
vt -5.933571 78.96438
vt 32.86089 78.96439
vt 18.10316 78.96439
vt 38.62232 73.64154
vt 38.62232 78.96439
vt -38.62232 73.64153
vt -32.86089 78.96437
vt -38.62232 78.96437
vt 6.111253 85.65923
vt -5.933573 85.65921
vt 32.86089 85.65923
vt 18.10316 85.65923
vt 5.933585 78.96439
vt -6.111245 78.9644
vt 5.933587 85.65923
vt -6.111246 85.65924
vt -32.86089 -6.111348
vt -38.62232 -6.111349
vt -38.62232 5.933481
vt -32.86089 5.933481
vt 5.933585 73.64154
vt 5.933583 65.16243
vt -6.111242 65.14629
vt -6.111244 73.64156
vt -27.94962 78.96437
vt -23.96314 78.96437
vt -18.10316 78.96437
vt 18.10316 -6.111362
vt 18.10316 5.933464
vt 23.95573 5.933466
vt 27.87816 5.933466
vt -23.95573 85.65921
vt -18.10316 85.65921
vt -32.8609 85.65921
vt -27.87816 85.65921
vt 23.95573 5.933575
vt 27.87816 5.933575
vt 23.95574 13.08347
vt 27.87816 13.08347
vt 5.933589 85.3568
vt 5.933588 78.66158
vt 13.08348 85.3568
vt 13.08348 78.66158
vt -5.933586 78.93783
vt -5.933588 85.63268
vt -13.08348 78.93783
vt -13.08348 85.63268
vt -27.94962 5.933573
vt -23.96313 5.933573
vt -27.94962 13.08346
vt -23.96314 13.08346
vt 23.95575 17.43854
vt 27.87816 17.43854
vt 17.43853 85.3568
vt 17.43852 78.6616
vt -13.08351 78.93784
vt -13.08351 85.63268
vt -17.43858 78.93785
vt -17.43858 85.63268
vt -27.94962 13.08374
vt -23.96314 13.08374
vt -27.94962 17.43881
vt -23.96315 17.43881
vt -23.4795 85.63268
vt -23.4795 78.93785
vt 27.87817 23.47948
vt 23.95575 23.47948
vt -23.96317 23.4795
vt -27.94964 23.47949
vt 23.4795 78.6616
vt 23.4795 85.3568
vt 23.96314 78.96437
vt 27.94961 78.96437
vt 23.96315 56.52942
vt 27.94962 56.52942
vt -23.4795 78.96437
vt -17.43856 78.96437
vt -23.47951 56.52942
vt -17.43857 56.52942
vt 17.43856 78.96437
vt 23.4795 78.96437
vt 17.43857 56.52941
vt 23.47952 56.52941
vt -27.94961 56.52941
vt -23.96314 56.52941
vt 23.96318 52.24559
vt 27.94966 52.24559
vt -23.47953 52.24557
vt -17.43859 52.24557
vt 17.43858 52.24555
vt 23.47952 52.24555
vt -27.94964 52.24557
vt -23.96317 52.24557
vt 23.96316 17.43855
vt 27.94963 17.43855
vt 23.96317 2.183144
vt 27.94965 2.183139
vt -2.183129 52.24558
vt -2.183123 56.52942
vt 2.183111 56.52939
vt 2.183115 52.24555
vt -27.94965 2.183142
vt -23.96317 2.18315
vt 23.96317 -2.11992
vt 27.94966 -2.119927
vt -2.119989 56.5294
vt -2.119985 52.24556
vt -27.94966 -2.119923
vt -23.96318 -2.119915
vt -23.96278 52.24559
vt -23.96278 56.52942
vt 4.365378 52.26526
vt 4.368547 56.52999
vt -23.93083 -2.119915
vt -23.93082 2.18315
vt 4.390296 -2.13934
vt 4.397342 2.188208
vt 23.96204 2.183144
vt 23.96205 -2.11992
vt -4.369283 2.190667
vt -4.358866 -2.139048
vt 23.96174 56.52943
vt 23.96174 52.24559
vt -4.359183 56.52841
vt -4.359386 52.26313
vt -2.107693 56.54917
vt -1.304954 57.89017
vt 1.181645 57.89017
vt 2.221986 56.55066
vt -2.132591 52.26752
vt 2.194964 52.26966
vt 2.197428 56.53439
vt 1.157066 57.87389
vt 3.761441 57.87387
vt 3.761396 43.35139
vt -3.794234 43.3514
vt -3.794213 57.87387
vt -1.329493 57.87387
vt -2.132298 56.5328
vt -41.67291 2.602046
vt -41.67291 -2.779915
vt -21.70752 78.96439
vt -21.70752 73.64154
vt -26.22473 78.96439
vt -26.22473 73.64154
vt 21.57651 73.64153
vt 21.57652 78.96438
vt 26.09372 73.64153
vt 26.09372 78.96438
vt 41.67313 -2.779922
vt 41.67312 2.602039
vt -41.67301 2.601931
vt -41.67301 -2.78003
vt -47.19357 2.510241
vt -45.80062 -2.688341
vt -41.62405 78.96437
vt -41.62405 73.64153
vt -47.14538 78.96437
vt -47.14538 73.64153
vt 41.601 73.64154
vt 41.601 78.96439
vt 45.72963 73.64154
vt 45.72963 78.96439
vt 41.67302 -2.780046
vt 41.67302 2.601916
vt 45.80063 -2.688356
vt 47.19358 2.510224
vt -47.0431 2.550579
vt -45.65015 -2.648003
vt -52.54526 -1.085117
vt -48.73965 -4.890753
vt -37.99011 78.96437
vt -37.9901 73.64153
vt -44.58494 78.95116
vt -44.58494 73.62831
vt 38.64346 73.64155
vt 38.64347 78.96439
vt 42.46116 73.62833
vt 42.46117 78.95118
vt 45.51745 -2.612408
vt 46.91039 2.586174
vt 48.60696 -4.855157
vt 52.41255 -1.049515
vt -52.55613 -0.9858628
vt -48.75053 -4.791502
vt -54.85041 -6.95182
vt -49.47095 -7.115686
vt -19.96445 78.95118
vt -19.96444 73.62833
vt -26.35633 78.93555
vt -26.35632 73.61271
vt 19.18429 73.62835
vt 19.1843 78.95119
vt 21.61754 73.61272
vt 21.61754 78.93557
vt 48.48404 -4.524432
vt 52.2896 -0.7187515
vt 49.2045 -6.848627
vt 54.5839 -6.684641
vt -54.98976 -7.091193
vt -49.61029 -7.25504
vt -54.98979 -11.06306
vt -49.61031 -11.06273
vt -7.091621 78.93553
vt -7.091615 73.61269
vt -11.06348 78.93553
vt -11.06348 73.61269
vt 7.255388 73.61274
vt 7.255392 78.93559
vt 11.06308 73.61274
vt 11.06308 78.93559
vt 49.61028 -7.255044
vt 54.98975 -7.091198
vt 49.6103 -11.06273
vt 54.98978 -11.06306
vt -54.98981 -32.45063
vt -49.61033 -32.45031
vt -32.45068 78.93553
vt -32.45068 73.61269
vt 11.06277 73.61274
vt 11.06277 78.93559
vt 32.45035 73.61274
vt 32.45035 78.93559
vt 49.61032 -32.45031
vt 54.9898 -32.45063
vt -10.08614 70.57552
vt -10.08614 65.23455
vt -18.17129 65.23367
vt -18.17129 70.57462
vt -17.65392 70.57798
vt 10.18968 65.21625
vt 10.18968 70.57337
vt 17.76174 70.57583
vt 18.27482 70.57248
vt 18.27482 65.21536
vt 17.82792 5.429596
vt 17.83138 -5.609995
vt 11.56951 -1.348328
vt 11.56951 1.170449
vt -5.615484 70.50381
vt 5.424104 70.5038
vt -5.615486 69.95284
vt 5.424105 69.95282
vt 13.31498 70.50384
vt 13.88922 70.50384
vt 13.31499 69.95286
vt 13.88922 69.95286
vt -5.933571 69.95282
vt 6.111251 69.95284
vt -14.00359 70.50385
vt -13.43323 70.50385
vt -14.00359 69.95287
vt -13.43323 69.95287
vt -3.324927 3.754667
vt -2.489574 3.754669
vt -2.48955 -3.800973
vt -3.324253 -3.80098
vt 3.799739 -15.03308
vt 3.799773 -15.76634
vt -3.75587 -15.76673
vt -3.755911 -15.0354
vt 3.800851 -18.73609
vt 3.800856 -19.80489
vt -3.754794 -19.80702
vt -3.754791 -18.73708
vt -3.754676 -19.7009
vt -3.754674 -17.73625
vt 3.800965 -17.73625
vt 3.800967 -19.69992
vt 4.341944 -17.73625
vt 9.74808 -17.73625
vt 9.74808 -19.7009
vt 9.651179 -20.76644
vt 9.35332 -21.43436
vt 8.627421 -21.84774
vt 7.880229 -21.96423
vt 4.341944 -21.96423
vt -8.628152 -21.84774
vt -9.353303 -21.43435
vt -9.651147 -20.76431
vt -9.748063 -19.69991
vt -9.748061 -17.73624
vt -4.341924 -17.73624
vt -4.341924 -21.96422
vt -7.880822 -21.96422
vt 7.880843 -3.800939
vt 4.341945 -3.800961
vt 4.34192 3.754678
vt 7.880205 3.754703
vt 4.403548 3.754341
vt 5.159766 3.754347
vt 5.160532 -3.8013
vt 4.404179 -3.801301

vn 1.451513E-05 0 -1
vn -1.446815E-05 0 1
vn -1 0 3.281725E-06
vn 0 -1 0
vn 0 1 0
vn 1 0 -3.407946E-06
vn 0.8207374 0.5713056 -1.035937E-06
vn 0.860157 0.5100294 -5.428459E-07
vn -0.001111076 0.002599329 0.999992
vn -0.002222107 0.005198657 0.999984
vn -0.003760925 1.566245E-08 -0.999993
vn -0.001880474 0.004418374 -0.999977
vn -2.231703E-08 0.008836732 -0.999961
vn 0.8212996 0 0.5704971
vn -0.821283 0 0.570521
vn 0.8212832 0 -0.5705207
vn -0.8212996 0 -0.5704972
vn 0.664115 -0.7476305 -2.216116E-06
vn 0.4967394 -0.7963614 0.3450487
vn -0.4967394 -0.7963613 -0.3450488
vn -0.6641153 -0.7476302 2.179444E-06
vn 0.4967273 -0.7963634 -0.3450615
vn -6.867864E-06 -0.8169332 -0.5767323
vn -0.4967272 -0.7963634 0.3450617
vn 6.867865E-06 -0.8169332 0.5767323
vn -0.9998226 -0.01755792 -0.006796623
vn -0.9998126 -0.01797776 -0.007181508
vn -0.9998326 -0.01713809 -0.006411738
vn -0.9999794 -1.623656E-06 -0.006412679
vn 0.997124 -0.07578786 -5.285534E-06
vn -0.9957124 0.09228237 -0.006385313
vn 0.9176162 -0.3974677 -6.06801E-06
vn -0.8276756 0.5611781 -0.005678587
vn -0.8273886 0.5615988 -0.005867215
vn -0.8271018 0.5620195 -0.006055844
vn 0.8662168 -0.4996684 -5.247562E-06
vn -0.7505018 0.6608435 -0.005745433
vn -0.7500951 0.6613032 -0.005930869
vn -0.7496883 0.6617628 -0.006116305
vn 0.8260857 -0.5635445 -7.480076E-06
vn -0.7572102 0.6531425 -0.006137967
vn -0.7569591 0.6534322 -0.00625511
vn -0.756708 0.6537219 -0.006372254
vn 0.6944903 -0.7195021 -8.303037E-06
vn -0.6694648 0.7428177 -0.006232388
vn -0.6692423 0.7430171 -0.006350093
vn 0.431826 -0.9019569 -6.608574E-06
vn -0.4611254 0.8873122 -0.006362769
vn 0.01946697 -0.9998105 -6.078984E-06
vn -0.007374526 0.9999536 -0.006203247
vn 0.004672337 0.9999686 -0.00640918
vn 0.001847622 0.9999836 -0.003874744
vn -0.0009770936 0.9999986 -0.001340309
vn 3.46454E-10 0.999999 -0.001340309
vn -0.999943 -0.01067254 5.335017E-07
vn 0.9999994 0.00110569 -5.33532E-07
vn -0.0002220358 0.0002875344 -0.9999999
vn -0.0002655186 0.0005764047 -0.9999998
vn 0.0006190555 0.9999998 1.097594E-09
vn 3.585077E-05 -0.9999999 0.0003666032
vn -0.0006753879 1.335128E-06 0.9999998
vn -0.9999677 0.007665072 -0.00240866
vn -0.999965 0.001380181 -0.004795621
vn -0.9999622 -0.004904709 -0.007182581
vn -0.9999769 -0.0005467079 -0.005979122
vn -0.9999883 -0.001533346 0.002722214
vn -0.9999899 0.0009039764 0.00383398
vn -0.9999938 0.002554054 0.002420804
vn -0.9999842 0.0001658856 0.004977843
vn -0.9999847 -0.001948129 0.003634426
vn -0.9999859 -0.001424746 -0.003397653
vn -0.9999682 0.002395798 -0.006056652
vn -0.9999714 0.007336493 -0.00185974
vn -0.9999707 0.003692323 -0.004800433
vn -0.7374988 5.285395E-07 -0.6753485
vn -0.7374982 -1.209998E-07 0.6753492
vn -0.01660686 0 -0.9998621
vn -0.02220833 0 0.9997534
vn 0.002042016 0.9999978 -0.0005442215
vn 0.002260925 0.9999958 -0.001510016
vn 0.002479835 0.9999939 -0.002475811
vn -0.5512947 9.613304E-08 -0.8343106
vn 0.5874601 -4.210121E-07 0.8092531
vn -0.003582404 -0.9999931 0.0009569675
vn -0.002515043 -0.9999955 0.001200317
vn -0.001447683 -0.9999979 0.001443666
vn 0.001894497 0.9999964 -0.001890477
vn 0.001050076 0.9999871 -0.004274719
vn 0.0002056543 0.9999778 -0.006658961
vn -0.9333637 4.11675E-07 -0.358932
vn 0.955169 -5.784478E-07 0.2960613
vn -0.00513506 -0.9999737 0.005131024
vn -0.002608354 -0.9999852 0.003859323
vn -8.164914E-05 -0.9999967 0.002587623
vn 0.5626348 0 -0.8267056
vn 0.5755522 -0.02290269 -0.8169632
vn 0.7329727 -0.02290269 -0.6434209
vn 0.8774757 0 -0.4796211
vn 0.6761934 -0.01526846 -0.7045159
vn 0.5755613 -0.02283362 0.8169608
vn 0.5626497 0 0.8266954
vn 0.6767097 -0.01522238 0.7035771
vn 0.8790064 8.487399E-08 0.4768099
vn 0.7337397 -0.02283357 0.642018
vn -0.9999999 -3.460656E-06 -0.0003134112
vn -0.8774757 -1.792351E-06 0.4796211
vn -0.8790064 -2.217596E-06 -0.4768098
vn 0.4948608 0.8689723 -5.078109E-05
vn 0.4950534 0.8688626 -2.629694E-05
vn 0.9135448 0.4067379 5.489784E-05
vn 0.9137889 0.4061896 -3.344818E-06
vn 0.9133006 0.4072862 0.0001131405
vn 0.9958854 0.09062222 1.602039E-05
vn 0.1540345 0.9880655 -1.30166E-05

usemtl ProBuilderDefault
f 198/555/2 5/554/2 7/553/2
f 193/550/2 191/549/2 192/548/2
f 195/551/2 193/550/2 192/548/2
f 198/555/2 195/551/2 192/548/2
f 198/555/2 17/552/2 195/551/2
f 7/553/2 17/552/2 198/555/2
f 197/546/1 15/541/1 4/540/1
f 196/542/1 15/541/1 197/546/1
f 194/543/1 196/542/1 197/546/1
f 194/543/1 197/546/1 189/545/1
f 189/545/1 190/544/1 194/543/1
f 4/540/1 2/547/1 197/546/1
f 25/47/2 23/46/2 44/45/2
f 44/45/2 18/44/2 22/43/2
f 25/47/2 44/45/2 22/43/2
f 21/39/1 43/42/1 26/40/1
f 21/39/1 16/38/1 43/42/1
f 43/42/1 24/41/1 26/40/1
f 37/60/2 35/59/2 45/58/2
f 45/58/2 30/57/2 34/56/2
f 37/60/2 45/58/2 34/56/2
f 33/62/1 46/65/1 38/63/1
f 33/62/1 29/61/1 46/65/1
f 46/65/1 36/64/1 38/63/1
f 34/72/6 42/71/6 47/70/6
f 47/70/6 48/75/6 34/72/6
f 34/72/6 48/75/6 33/73/6
f 39/74/6 33/73/6 48/75/6
f 101/497/96 100/496/95 183/500/99
f 101/497/96 183/500/99 103/498/97
f 105/499/98 103/498/97 183/500/99
f 184/503/102 104/505/104 109/504/103
f 104/505/104 184/503/102 102/501/100
f 184/503/102 99/502/101 102/501/100
f 126/301/4 121/264/4 122/265/4
f 125/300/4 121/264/4 126/301/4
f 119/298/4 121/264/4 125/300/4
f 119/298/4 125/300/4 120/299/4
f 105/252/1 116/297/1 124/296/1
f 105/252/1 124/296/1 106/254/1
f 106/254/1 124/296/1 123/295/1
f 112/277/1 106/254/1 123/295/1
f 41/407/72 158/409/74 52/408/73
f 41/407/72 157/400/65 158/409/74
f 53/403/68 156/402/67 40/404/69
f 40/404/69 156/402/67 155/401/66
f 40/404/69 155/401/66 31/405/70
f 31/405/70 155/401/66 32/406/71
f 155/401/66 157/400/65 32/406/71
f 41/407/72 32/406/71 157/400/65
f 2/2/1 4/4/1 3/3/1
f 3/3/1 1/1/1 2/2/1
f 6/2/2 8/4/2 7/3/2
f 7/3/2 5/1/2 6/2/2
f 10/5/3 12/6/3 11/3/3
f 11/3/3 9/1/3 10/5/3
f 4/8/4 7/10/4 8/9/4
f 8/9/4 3/7/4 4/8/4
f 5/11/5 2/12/5 1/3/5
f 1/3/5 6/10/5 5/11/5
f 14/3/3 7/14/3 4/13/3
f 4/13/3 13/6/3 14/3/3
f 13/3/1 4/14/1 15/15/1
f 15/15/1 16/16/1 13/3/1
f 18/3/2 17/14/2 7/15/2
f 7/15/2 14/16/2 18/3/2
f 16/3/6 15/14/6 17/13/6
f 17/13/6 18/6/6 16/3/6
f 20/3/3 14/18/3 13/17/3
f 13/17/3 19/6/3 20/3/3
f 19/3/1 13/18/1 16/19/1
f 16/19/1 21/16/1 19/3/1
f 22/3/2 18/18/2 14/19/2
f 14/19/2 20/16/2 22/3/2
f 26/3/6 24/21/6 23/20/6
f 23/20/6 25/6/6 26/3/6
f 25/10/4 22/23/4 21/22/4
f 21/22/4 26/3/4 25/10/4
f 28/3/3 20/25/3 19/24/3
f 19/24/3 27/6/3 28/3/3
f 27/3/1 19/25/1 21/26/1
f 21/26/1 29/16/1 27/3/1
f 30/3/2 22/25/2 20/26/2
f 20/26/2 28/16/2 30/3/2
f 29/3/6 21/25/6 22/24/6
f 22/24/6 30/6/6 29/3/6
f 32/3/3 28/28/3 27/27/3
f 27/27/3 31/6/3 32/3/3
f 31/3/1 27/28/1 29/29/1
f 29/29/1 33/16/1 31/3/1
f 34/3/2 30/28/2 28/29/2
f 28/29/2 32/16/2 34/3/2
f 38/3/6 36/31/6 35/30/6
f 35/30/6 37/6/6 38/3/6
f 40/34/1 31/33/1 33/32/1
f 33/32/1 39/16/1 40/34/1
f 42/3/2 34/33/2 32/32/2
f 32/32/2 41/35/2 42/3/2
f 37/10/4 34/37/4 33/36/4
f 33/36/4 38/3/4 37/10/4
f 18/49/5 44/48/5 43/51/5
f 43/51/5 16/50/5 18/49/5
f 44/55/7 23/54/7 24/53/7
f 24/53/7 43/52/7 44/55/7
f 29/50/5 30/49/5 45/48/5
f 45/48/5 46/51/5 29/50/5
f 45/69/8 35/68/8 36/67/8
f 36/67/8 46/66/8 45/69/8
f 49/77/6 48/76/6 47/70/6
f 47/70/6 50/78/6 49/77/6
f 51/81/9 50/79/2 47/80/9
f 47/80/9 52/82/10 51/81/9
f 52/85/4 47/83/4 42/84/4
f 42/84/4 41/86/4 52/85/4
f 40/89/4 39/87/4 48/88/4
f 48/88/4 53/90/4 40/89/4
f 53/93/12 48/91/11 49/92/12
f 49/92/12 54/94/13 53/93/12
f 58/97/4 56/3/4 55/95/4
f 55/95/4 57/96/4 58/97/4
f 62/1/1 60/99/1 59/98/1
f 59/98/1 61/3/1 62/1/1
f 9/10/5 6/101/5 1/100/5
f 1/100/5 10/8/5 9/10/5
f 66/98/2 64/3/2 63/1/2
f 63/1/2 65/99/2 66/98/2
f 64/103/14 8/3/14 6/1/14
f 6/1/14 63/102/14 64/103/14
f 63/106/5 6/104/5 9/8/5
f 9/8/5 65/105/5 63/106/5
f 68/108/4 57/97/4 55/3/4
f 55/3/4 67/107/4 68/108/4
f 65/1/15 9/102/15 11/103/15
f 11/103/15 66/3/15 65/1/15
f 60/1/16 1/102/16 3/103/16
f 3/103/16 59/3/16 60/1/16
f 70/112/4 56/110/4 58/109/4
f 58/109/4 69/111/4 70/112/4
f 62/116/5 10/114/5 1/113/5
f 1/113/5 60/115/5 62/116/5
f 61/103/17 12/3/17 10/1/17
f 10/1/17 62/102/17 61/103/17
f 56/118/18 3/3/18 8/10/18
f 8/10/18 55/117/18 56/118/18
f 55/122/19 8/120/19 64/119/19
f 64/119/19 67/121/19 55/122/19
f 58/126/20 12/124/20 61/123/20
f 61/123/20 69/125/20 58/126/20
f 57/130/21 11/128/21 12/127/21
f 12/127/21 58/129/21 57/130/21
f 70/134/22 59/132/22 3/131/22
f 3/131/22 56/133/22 70/134/22
f 69/137/23 61/135/23 59/3/23
f 59/3/23 70/136/23 69/137/23
f 68/141/24 66/139/24 11/138/24
f 11/138/24 57/140/24 68/141/24
f 67/145/25 64/143/25 66/142/25
f 66/142/25 68/144/25 67/145/25
f 51/146/26 52/147/27 53/148/26
f 53/148/26 54/149/28 51/146/26
f 72/153/6 49/151/6 50/150/6
f 50/150/6 71/152/6 72/153/6
f 73/157/1 54/155/1 49/154/1
f 49/154/1 72/156/1 73/157/1
f 74/161/29 51/159/29 54/158/29
f 54/158/29 73/160/29 74/161/29
f 71/163/2 50/79/2 51/81/2
f 51/81/2 74/162/2 71/163/2
f 76/167/30 72/165/30 71/164/30
f 71/164/30 75/166/30 76/167/30
f 77/169/1 73/157/1 72/156/1
f 72/156/1 76/168/1 77/169/1
f 78/173/31 74/171/31 73/170/31
f 73/170/31 77/172/31 78/173/31
f 75/175/2 71/163/2 74/162/2
f 74/162/2 78/174/2 75/175/2
f 80/179/32 76/177/32 75/176/32
f 75/176/32 79/178/32 80/179/32
f 81/181/1 77/169/1 76/168/1
f 76/168/1 80/180/1 81/181/1
f 82/185/35 78/183/34 77/182/33
f 77/182/33 81/184/34 82/185/35
f 79/187/2 75/175/2 78/174/2
f 78/174/2 82/186/2 79/187/2
f 84/191/36 80/189/36 79/188/36
f 79/188/36 83/190/36 84/191/36
f 85/193/1 81/181/1 80/180/1
f 80/180/1 84/192/1 85/193/1
f 86/197/39 82/195/38 81/194/37
f 81/194/37 85/196/38 86/197/39
f 83/199/2 79/187/2 82/186/2
f 82/186/2 86/198/2 83/199/2
f 88/203/40 84/201/40 83/200/40
f 83/200/40 87/202/40 88/203/40
f 89/205/1 85/193/1 84/192/1
f 84/192/1 88/204/1 89/205/1
f 90/209/43 86/207/42 85/206/41
f 85/206/41 89/208/42 90/209/43
f 87/211/2 83/199/2 86/198/2
f 86/198/2 90/210/2 87/211/2
f 92/215/44 88/213/44 87/212/44
f 87/212/44 91/214/44 92/215/44
f 93/217/1 89/205/1 88/204/1
f 88/204/1 92/216/1 93/217/1
f 94/221/46 90/219/45 89/218/45
f 89/218/45 93/220/45 94/221/46
f 91/223/2 87/211/2 90/210/2
f 90/210/2 94/222/2 91/223/2
f 96/227/47 92/225/47 91/224/47
f 91/224/47 95/226/47 96/227/47
f 97/229/1 93/217/1 92/216/1
f 92/216/1 96/228/1 97/229/1
f 98/233/48 94/231/48 93/230/48
f 93/230/48 97/232/48 98/233/48
f 95/235/2 91/223/2 94/222/2
f 94/222/2 98/234/2 95/235/2
f 100/239/49 96/237/49 95/236/49
f 95/236/49 99/238/49 100/239/49
f 101/241/1 97/229/1 96/228/1
f 96/228/1 100/240/1 101/241/1
f 102/245/50 98/243/50 97/242/50
f 97/242/50 101/244/50 102/245/50
f 99/247/2 95/235/2 98/234/2
f 98/234/2 102/246/2 99/247/2
f 104/251/53 102/249/52 101/248/51
f 101/248/51 103/250/52 104/251/53
f 107/255/1 103/253/1 105/252/1
f 105/252/1 106/254/1 107/255/1
f 108/259/54 104/257/54 103/256/54
f 103/256/54 107/258/54 108/259/54
f 110/263/2 109/261/2 104/260/2
f 104/260/2 108/262/2 110/263/2
f 114/267/4 112/265/4 111/264/4
f 111/264/4 113/266/4 114/267/4
f 116/271/6 105/269/6 109/268/6
f 109/268/6 115/270/6 116/271/6
f 115/273/2 109/261/2 110/263/2
f 110/263/2 111/272/2 115/273/2
f 111/272/2 110/263/2 117/274/2
f 117/274/2 113/275/2 111/272/2
f 114/278/1 118/276/1 106/254/1
f 106/254/1 112/277/1 114/278/1
f 120/280/6 116/271/6 115/270/6
f 115/270/6 119/279/6 120/280/6
f 119/282/2 115/273/2 111/272/2
f 111/272/2 121/281/2 119/282/2
f 121/286/3 111/284/3 112/283/3
f 112/283/3 122/285/3 121/286/3
f 110/287/5 106/290/5 118/289/5
f 118/289/5 117/288/5 110/287/5
f 110/294/3 108/293/3 107/292/3
f 107/292/3 106/291/3 110/294/3
f 116/297/1 120/303/1 125/302/1
f 125/302/1 124/296/1 116/297/1
f 112/277/1 123/295/1 126/305/1
f 126/305/1 122/304/1 112/277/1
f 127/308/4 125/306/4 126/307/4
f 126/307/4 128/309/4 127/308/4
f 128/312/55 126/310/55 123/311/55
f 123/311/55 129/313/55 128/312/55
f 130/316/56 124/314/56 125/315/56
f 125/315/56 127/317/56 130/316/56
f 129/320/5 123/318/5 124/319/5
f 124/319/5 130/321/5 129/320/5
f 131/322/4 127/308/4 128/309/4
f 128/309/4 132/323/4 131/322/4
f 132/324/55 128/312/55 129/313/55
f 129/313/55 133/325/55 132/324/55
f 134/328/56 130/326/56 127/327/56
f 127/327/56 131/329/56 134/328/56
f 133/332/5 129/330/5 130/331/5
f 130/331/5 134/333/5 133/332/5
f 137/295/1 138/296/1 135/302/1
f 135/302/1 136/305/1 137/295/1
f 138/335/56 134/328/56 131/329/56
f 131/329/56 135/334/56 138/335/56
f 135/337/4 131/322/4 132/323/4
f 132/323/4 136/336/4 135/337/4
f 142/339/5 140/332/5 139/333/5
f 139/333/5 141/338/5 142/339/5
f 136/341/55 132/324/55 133/325/55
f 133/325/55 137/340/55 136/341/55
f 144/345/2 133/343/2 134/342/2
f 134/342/2 143/344/2 144/345/2
f 143/349/6 134/347/6 138/346/6
f 138/346/6 145/348/6 143/349/6
f 146/353/3 137/351/3 133/350/3
f 133/350/3 144/352/3 146/353/3
f 145/355/1 138/296/1 137/295/1
f 137/295/1 146/354/1 145/355/1
f 150/357/2 148/345/2 147/344/2
f 147/344/2 149/356/2 150/357/2
f 139/359/6 143/349/6 145/348/6
f 145/348/6 141/358/6 139/359/6
f 142/361/3 146/353/3 144/352/3
f 144/352/3 140/360/3 142/361/3
f 141/363/1 145/355/1 146/354/1
f 146/354/1 142/362/1 141/363/1
f 152/367/4 144/365/4 143/364/4
f 143/364/4 151/366/4 152/367/4
f 151/369/6 143/349/6 139/359/6
f 139/359/6 153/368/6 151/369/6
f 154/371/3 140/360/3 144/352/3
f 144/352/3 152/370/3 154/371/3
f 153/373/5 139/333/5 140/332/5
f 140/332/5 154/372/5 153/373/5
f 148/375/4 152/367/4 151/366/4
f 151/366/4 147/374/4 148/375/4
f 150/377/3 154/371/3 152/370/3
f 152/370/3 148/376/3 150/377/3
f 149/379/5 153/373/5 154/372/5
f 154/372/5 150/378/5 149/379/5
f 156/383/58 151/381/57 153/380/1
f 153/380/1 155/382/57 156/383/58
f 155/387/59 153/385/59 149/384/59
f 149/384/59 157/386/59 155/387/59
f 158/391/60 147/389/4 151/388/4
f 151/388/4 156/390/4 158/391/60
f 157/395/61 149/393/61 147/392/61
f 147/392/61 158/394/61 157/395/61
f 158/396/62 156/399/63 53/398/64
f 53/398/64 52/397/63 158/396/62
f 160/411/5 117/288/5 118/289/5
f 118/289/5 159/410/5 160/411/5
f 159/415/75 118/413/75 114/412/75
f 114/412/75 161/414/75 159/415/75
f 162/419/76 113/417/76 117/416/76
f 117/416/76 160/418/76 162/419/76
f 161/421/4 114/267/4 113/266/4
f 113/266/4 162/420/4 161/421/4
f 164/425/5 160/423/5 159/422/5
f 159/422/5 163/424/5 164/425/5
f 163/429/77 159/427/77 161/426/77
f 161/426/77 165/428/77 163/429/77
f 166/433/78 162/431/78 160/430/78
f 160/430/78 164/432/78 166/433/78
f 165/437/4 161/435/4 162/434/4
f 162/434/4 166/436/4 165/437/4
f 168/441/81 164/439/80 163/438/79
f 163/438/79 167/440/80 168/441/81
f 167/445/82 163/443/82 165/442/82
f 165/442/82 169/444/82 167/445/82
f 170/449/83 166/447/83 164/446/83
f 164/446/83 168/448/83 170/449/83
f 169/453/86 165/451/85 166/450/84
f 166/450/84 170/452/85 169/453/86
f 172/457/89 168/455/88 167/454/87
f 167/454/87 171/456/88 172/457/89
f 171/461/90 167/459/90 169/458/90
f 169/458/90 173/460/90 171/461/90
f 174/465/91 170/463/91 168/462/91
f 168/462/91 172/464/91 174/465/91
f 173/469/94 169/467/93 170/466/92
f 170/466/92 174/468/93 173/469/94
f 176/473/5 172/471/5 171/470/5
f 171/470/5 175/472/5 176/473/5
f 175/477/3 171/475/3 173/474/3
f 173/474/3 177/476/3 175/477/3
f 178/481/6 174/479/6 172/478/6
f 172/478/6 176/480/6 178/481/6
f 177/485/4 173/483/4 174/482/4
f 174/482/4 178/484/4 177/485/4
f 180/487/5 176/473/5 175/472/5
f 175/472/5 179/486/5 180/487/5
f 179/489/3 175/477/3 177/476/3
f 177/476/3 181/488/3 179/489/3
f 182/493/6 178/491/6 176/490/6
f 176/490/6 180/492/6 182/493/6
f 181/495/4 177/485/4 178/484/4
f 178/484/4 182/494/4 181/495/4
f 186/299/4 185/506/4 188/507/4
f 188/507/4 187/298/4 186/299/4
f 99/508/4 184/507/4 183/506/4
f 183/506/4 100/509/4 99/508/4
f 185/513/105 183/511/105 184/510/105
f 184/510/105 188/512/105 185/513/105
f 186/517/106 105/515/106 183/514/106
f 183/514/106 185/516/106 186/517/106
f 187/519/6 109/268/6 105/269/6
f 105/269/6 186/518/6 187/519/6
f 188/523/107 184/521/107 109/520/107
f 109/520/107 187/522/107 188/523/107
f 192/527/109 191/526/109 190/525/109
f 190/525/109 189/524/108 192/527/109
f 191/529/111 193/528/110 194/531/112
f 194/531/112 190/530/110 191/529/111
f 195/532/113 196/535/113 194/534/113
f 194/534/113 193/533/113 195/532/113
f 196/536/6 195/539/6 17/538/6
f 17/538/6 15/537/6 196/536/6
f 5/557/5 198/556/5 197/559/5
f 197/559/5 2/558/5 5/557/5
f 198/563/114 192/562/114 189/561/114
f 189/561/114 197/560/114 198/563/114

